<mxfile host="Electron" modified="2024-04-06T13:42:20.203Z" agent="Mozilla/5.0 (Macintosh; Intel Mac OS X 10_15_7) AppleWebKit/537.36 (KHTML, like Gecko) draw.io/24.1.0 Chrome/120.0.6099.109 Electron/28.1.0 Safari/537.36" etag="YtDTAM3SP85NKnL3x8SN" version="24.1.0" type="device">
  <diagram id="C5RBs43oDa-KdzZeNtuy" name="Page-1">
    <mxGraphModel dx="997" dy="537" grid="1" gridSize="10" guides="1" tooltips="1" connect="1" arrows="1" fold="1" page="1" pageScale="1" pageWidth="827" pageHeight="1169" math="0" shadow="0">
      <root>
        <mxCell id="WIyWlLk6GJQsqaUBKTNV-0" />
        <mxCell id="WIyWlLk6GJQsqaUBKTNV-1" parent="WIyWlLk6GJQsqaUBKTNV-0" />
        <mxCell id="HdZcAGLIQaIZFZQObZml-0" value="&amp;lt;&amp;lt;ObservableInterface&amp;gt;&amp;gt;" style="swimlane;fontStyle=1;align=center;verticalAlign=middle;childLayout=stackLayout;horizontal=1;startSize=29;horizontalStack=0;resizeParent=1;resizeParentMax=0;resizeLast=0;collapsible=0;marginBottom=0;html=1;whiteSpace=wrap;" vertex="1" parent="WIyWlLk6GJQsqaUBKTNV-1">
          <mxGeometry x="30" y="30" width="230" height="130" as="geometry" />
        </mxCell>
        <mxCell id="HdZcAGLIQaIZFZQObZml-1" value="List&amp;lt;ObserverInterface&amp;gt; obsvIntfList;&lt;div&gt;add(ObserverInterface obj);&lt;/div&gt;&lt;div&gt;remove(&lt;span style=&quot;background-color: initial;&quot;&gt;ObserverInterface obj);&lt;/span&gt;&lt;/div&gt;&lt;div&gt;&lt;span style=&quot;background-color: initial;&quot;&gt;notify();&lt;/span&gt;&lt;/div&gt;&lt;div&gt;&lt;span style=&quot;background-color: initial;&quot;&gt;setData();&lt;/span&gt;&lt;/div&gt;" style="text;html=1;strokeColor=none;fillColor=none;align=center;verticalAlign=middle;spacingLeft=4;spacingRight=4;overflow=hidden;rotatable=0;points=[[0,0.5],[1,0.5]];portConstraint=eastwest;whiteSpace=wrap;" vertex="1" parent="HdZcAGLIQaIZFZQObZml-0">
          <mxGeometry y="29" width="230" height="101" as="geometry" />
        </mxCell>
        <mxCell id="HdZcAGLIQaIZFZQObZml-8" value="&amp;lt;&amp;lt;ObserverInterface&amp;gt;&amp;gt;" style="swimlane;fontStyle=1;align=center;verticalAlign=middle;childLayout=stackLayout;horizontal=1;startSize=29;horizontalStack=0;resizeParent=1;resizeParentMax=0;resizeLast=0;collapsible=0;marginBottom=0;html=1;whiteSpace=wrap;" vertex="1" parent="WIyWlLk6GJQsqaUBKTNV-1">
          <mxGeometry x="460" y="65" width="200" height="60" as="geometry" />
        </mxCell>
        <mxCell id="HdZcAGLIQaIZFZQObZml-9" value="update();" style="text;html=1;strokeColor=none;fillColor=none;align=center;verticalAlign=middle;spacingLeft=4;spacingRight=4;overflow=hidden;rotatable=0;points=[[0,0.5],[1,0.5]];portConstraint=eastwest;whiteSpace=wrap;" vertex="1" parent="HdZcAGLIQaIZFZQObZml-8">
          <mxGeometry y="29" width="200" height="31" as="geometry" />
        </mxCell>
        <mxCell id="HdZcAGLIQaIZFZQObZml-10" style="edgeStyle=orthogonalEdgeStyle;rounded=0;orthogonalLoop=1;jettySize=auto;html=1;exitX=1;exitY=0.5;exitDx=0;exitDy=0;entryX=0;entryY=0.5;entryDx=0;entryDy=0;" edge="1" parent="WIyWlLk6GJQsqaUBKTNV-1" source="HdZcAGLIQaIZFZQObZml-1" target="HdZcAGLIQaIZFZQObZml-9">
          <mxGeometry relative="1" as="geometry" />
        </mxCell>
        <mxCell id="HdZcAGLIQaIZFZQObZml-11" value="(0, n)" style="text;html=1;align=center;verticalAlign=middle;resizable=0;points=[];autosize=1;strokeColor=none;fillColor=none;" vertex="1" parent="WIyWlLk6GJQsqaUBKTNV-1">
          <mxGeometry x="330" y="80" width="50" height="30" as="geometry" />
        </mxCell>
        <mxCell id="HdZcAGLIQaIZFZQObZml-12" value="has-a" style="text;html=1;align=center;verticalAlign=middle;resizable=0;points=[];autosize=1;strokeColor=none;fillColor=none;" vertex="1" parent="WIyWlLk6GJQsqaUBKTNV-1">
          <mxGeometry x="330" y="108" width="50" height="30" as="geometry" />
        </mxCell>
        <mxCell id="HdZcAGLIQaIZFZQObZml-14" value="&amp;lt;&amp;lt;Observable Concrete Class&amp;gt;&amp;gt;" style="swimlane;fontStyle=1;align=center;verticalAlign=middle;childLayout=stackLayout;horizontal=1;startSize=29;horizontalStack=0;resizeParent=1;resizeParentMax=0;resizeLast=0;collapsible=0;marginBottom=0;html=1;whiteSpace=wrap;" vertex="1" parent="WIyWlLk6GJQsqaUBKTNV-1">
          <mxGeometry x="30" y="260" width="230" height="130" as="geometry" />
        </mxCell>
        <mxCell id="HdZcAGLIQaIZFZQObZml-15" value="&lt;div&gt;add(ObserverInterface obj) {}&lt;/div&gt;&lt;div&gt;remove(&lt;span style=&quot;background-color: initial;&quot;&gt;ObserverInterface obj) {}&lt;/span&gt;&lt;/div&gt;&lt;div&gt;&lt;span style=&quot;background-color: initial;&quot;&gt;notify() {}&lt;/span&gt;&lt;/div&gt;&lt;div&gt;&lt;span style=&quot;background-color: initial;&quot;&gt;setData() {}&lt;/span&gt;&lt;/div&gt;" style="text;html=1;strokeColor=none;fillColor=none;align=center;verticalAlign=middle;spacingLeft=4;spacingRight=4;overflow=hidden;rotatable=0;points=[[0,0.5],[1,0.5]];portConstraint=eastwest;whiteSpace=wrap;" vertex="1" parent="HdZcAGLIQaIZFZQObZml-14">
          <mxGeometry y="29" width="230" height="101" as="geometry" />
        </mxCell>
        <mxCell id="HdZcAGLIQaIZFZQObZml-17" style="edgeStyle=orthogonalEdgeStyle;rounded=0;orthogonalLoop=1;jettySize=auto;html=1;exitX=0.5;exitY=0;exitDx=0;exitDy=0;entryX=0.463;entryY=1.007;entryDx=0;entryDy=0;entryPerimeter=0;" edge="1" parent="WIyWlLk6GJQsqaUBKTNV-1" source="HdZcAGLIQaIZFZQObZml-14" target="HdZcAGLIQaIZFZQObZml-1">
          <mxGeometry relative="1" as="geometry" />
        </mxCell>
        <mxCell id="HdZcAGLIQaIZFZQObZml-18" value="is-a" style="text;html=1;align=center;verticalAlign=middle;resizable=0;points=[];autosize=1;strokeColor=none;fillColor=none;" vertex="1" parent="WIyWlLk6GJQsqaUBKTNV-1">
          <mxGeometry x="140" y="210" width="40" height="30" as="geometry" />
        </mxCell>
        <mxCell id="HdZcAGLIQaIZFZQObZml-21" style="edgeStyle=orthogonalEdgeStyle;rounded=0;orthogonalLoop=1;jettySize=auto;html=1;exitX=0.5;exitY=0;exitDx=0;exitDy=0;" edge="1" parent="WIyWlLk6GJQsqaUBKTNV-1" source="HdZcAGLIQaIZFZQObZml-19">
          <mxGeometry relative="1" as="geometry">
            <mxPoint x="550" y="130.0000000000001" as="targetPoint" />
          </mxGeometry>
        </mxCell>
        <mxCell id="HdZcAGLIQaIZFZQObZml-19" value="&amp;lt;&amp;lt;Observer Concrete Class&amp;gt;&amp;gt;" style="swimlane;fontStyle=1;align=center;verticalAlign=middle;childLayout=stackLayout;horizontal=1;startSize=29;horizontalStack=0;resizeParent=1;resizeParentMax=0;resizeLast=0;collapsible=0;marginBottom=0;html=1;whiteSpace=wrap;" vertex="1" parent="WIyWlLk6GJQsqaUBKTNV-1">
          <mxGeometry x="455" y="260" width="210" height="60" as="geometry" />
        </mxCell>
        <mxCell id="HdZcAGLIQaIZFZQObZml-20" value="&lt;div&gt;update() {}&lt;/div&gt;" style="text;html=1;strokeColor=none;fillColor=none;align=center;verticalAlign=middle;spacingLeft=4;spacingRight=4;overflow=hidden;rotatable=0;points=[[0,0.5],[1,0.5]];portConstraint=eastwest;whiteSpace=wrap;" vertex="1" parent="HdZcAGLIQaIZFZQObZml-19">
          <mxGeometry y="29" width="210" height="31" as="geometry" />
        </mxCell>
        <mxCell id="HdZcAGLIQaIZFZQObZml-22" value="is-a" style="text;html=1;align=center;verticalAlign=middle;resizable=0;points=[];autosize=1;strokeColor=none;fillColor=none;" vertex="1" parent="WIyWlLk6GJQsqaUBKTNV-1">
          <mxGeometry x="560" y="198" width="40" height="30" as="geometry" />
        </mxCell>
        <mxCell id="HdZcAGLIQaIZFZQObZml-23" style="edgeStyle=orthogonalEdgeStyle;rounded=0;orthogonalLoop=1;jettySize=auto;html=1;exitX=0;exitY=0.5;exitDx=0;exitDy=0;entryX=1.007;entryY=0.302;entryDx=0;entryDy=0;entryPerimeter=0;" edge="1" parent="WIyWlLk6GJQsqaUBKTNV-1" source="HdZcAGLIQaIZFZQObZml-20" target="HdZcAGLIQaIZFZQObZml-15">
          <mxGeometry relative="1" as="geometry" />
        </mxCell>
        <mxCell id="HdZcAGLIQaIZFZQObZml-24" value="has-a" style="text;html=1;align=center;verticalAlign=middle;resizable=0;points=[];autosize=1;strokeColor=none;fillColor=none;" vertex="1" parent="WIyWlLk6GJQsqaUBKTNV-1">
          <mxGeometry x="325" y="318" width="50" height="30" as="geometry" />
        </mxCell>
      </root>
    </mxGraphModel>
  </diagram>
</mxfile>
